<svg width="99" height="93" viewBox="0 0 99 93" fill="none" xmlns="http://www.w3.org/2000/svg">
<g clip-path="url(#clip0_54_138)">
<path d="M49.599 92.8122C37.9368 92.8122 26.2746 92.8518 14.619 92.7924C9.91319 92.766 6.08519 90.786 3.24719 87.024C1.38599 84.5622 0.428991 81.7374 0.422391 78.6552C0.389391 63.0396 0.395991 47.4174 0.409191 31.7952C0.415791 24.1392 6.77819 17.7306 14.4276 17.6778C18.8694 17.6448 23.3178 17.6646 27.7662 17.6646C29.238 17.6646 29.2578 17.6448 29.271 16.14C29.2908 13.9554 29.0928 11.7576 29.3766 9.57956C30.1092 4.00916 34.3332 0.319763 39.9366 0.313163C46.5696 0.306563 53.2092 0.299963 59.8422 0.313163C64.482 0.326363 67.7226 2.53736 69.6432 6.70856C70.0854 7.67216 70.3626 8.71496 70.3758 9.79076C70.4022 12.015 70.4418 14.2392 70.4022 16.4568C70.389 17.394 70.7388 17.6778 71.643 17.6712C76.0254 17.6382 80.4078 17.6514 84.7836 17.6646C91.4562 17.691 97.4754 22.8456 98.5182 29.4324C98.6106 30.033 98.5842 30.6534 98.5842 31.2672C98.5842 47.1798 98.538 63.0924 98.6106 79.005C98.637 84.549 94.7694 89.8092 89.8392 91.7562C87.7932 92.568 85.6812 92.8254 83.5032 92.8254C72.1974 92.8122 60.8916 92.8188 49.5858 92.8188C49.599 92.8188 49.599 92.8188 49.599 92.8122ZM49.5594 86.9514C49.5594 86.958 49.5594 86.958 49.5594 86.9514C60.9642 86.958 72.3624 86.8854 83.7606 86.991C88.5126 87.0372 92.9544 83.1564 92.8686 77.9094C92.7366 69.8244 92.8356 61.7394 92.8356 53.6544C92.8356 52.374 92.796 52.374 91.5288 52.3806C87.5688 52.3938 83.6088 52.3674 79.6488 52.374C76.7184 52.374 73.788 52.4136 70.8642 52.407C70.1184 52.407 69.8082 52.6974 69.8412 53.4432C69.8676 54.1164 69.8544 54.7962 69.8148 55.4694C69.7356 56.9478 68.772 57.9708 67.3596 58.1028C65.6502 58.2612 64.3764 57.4626 64.0596 55.9578C63.9474 55.4298 63.9936 54.8688 63.9936 54.321C63.9936 52.2882 63.9936 52.341 61.9674 52.3542C56.8524 52.3872 51.7308 52.3608 46.6158 52.3608C43.1046 52.3608 39.6 52.3674 36.0888 52.3542C35.442 52.3542 35.1384 52.5852 35.1648 53.2584C35.1912 53.9646 35.1978 54.6774 35.1582 55.3836C35.079 56.961 34.056 58.0104 32.5644 58.1028C30.7692 58.2084 29.6604 57.3966 29.3568 55.74C29.205 54.9084 29.1918 54.0702 29.238 53.2386C29.271 52.5984 29.007 52.374 28.3866 52.3938C27.5814 52.4136 26.7762 52.3608 25.971 52.3608C19.8198 52.374 13.6752 52.4136 7.52399 52.3872C6.55379 52.3806 6.32939 52.704 6.32939 53.6016C6.35579 61.7856 6.34259 69.963 6.34919 78.147C6.34919 79.0446 6.34259 79.9488 6.65279 80.82C8.00579 84.6546 11.2662 86.958 15.3384 86.9514C26.7564 86.9514 38.1546 86.9514 49.5594 86.9514ZM49.4934 23.4792C45.7578 23.4792 42.0222 23.4792 38.2866 23.4792C30.558 23.4792 22.8294 23.5122 15.1008 23.4726C10.2432 23.4462 6.21719 27.756 6.33599 32.0724C6.45479 36.5142 6.37559 40.9626 6.34919 45.4044C6.34259 46.2426 6.62639 46.5264 7.47119 46.5264C14.3616 46.5 21.252 46.5 28.149 46.5264C29.0862 46.533 29.3304 46.1436 29.2776 45.312C29.2248 44.5398 29.1852 43.7742 29.3832 43.0086C29.7858 41.4708 30.9738 40.6062 32.5182 40.7448C34.0956 40.8834 35.0724 41.9064 35.1582 43.5366C35.1912 44.1174 35.2308 44.6982 35.1714 45.2724C35.0658 46.269 35.4882 46.5264 36.4386 46.5198C41.5602 46.4802 46.6818 46.5066 51.7968 46.5066C55.4334 46.5066 59.0766 46.4736 62.7132 46.5198C63.657 46.533 64.0992 46.2954 63.9936 45.2856C63.9276 44.6784 63.9738 44.0646 64.0002 43.4508C64.0662 41.8866 65.241 40.7646 66.825 40.7382C68.5014 40.7052 69.7092 41.7546 69.8214 43.3716C69.8676 44.0448 69.8742 44.7246 69.828 45.3978C69.7752 46.2228 70.092 46.5264 70.9434 46.5264C77.8338 46.5 84.7242 46.4934 91.6212 46.5198C92.532 46.5264 92.862 46.2558 92.8554 45.3186C92.8158 40.9362 92.8488 36.5604 92.829 32.178C92.8224 31.1484 92.7366 30.1188 92.3274 29.1486C90.8424 25.578 87.7008 23.4858 83.787 23.4858C72.3558 23.4792 60.9246 23.4792 49.4934 23.4792ZM49.8894 17.658C54.3972 17.658 58.8984 17.6448 63.4062 17.6712C64.2576 17.6778 64.6206 17.4336 64.5876 16.5162C64.5282 14.6484 64.581 12.7806 64.5678 10.9194C64.5414 8.10116 62.7792 6.27956 59.9544 6.15416C58.9248 6.10796 57.8952 6.14096 56.8656 6.14096C51.2688 6.14096 45.6654 6.16736 40.0686 6.12776C37.1646 6.10796 35.0196 8.36516 35.1582 11.0382C35.2506 12.8004 35.1846 14.5758 35.1846 16.3446C35.1846 17.6184 35.211 17.6514 36.4716 17.6514C40.9398 17.6646 45.4146 17.658 49.8894 17.658Z" fill="#132D61"/>
</g>
<defs>
<clipPath id="clip0_54_138">
<rect width="99" height="93" fill="white"/>
</clipPath>
</defs>
</svg>
