<svg width="15" height="15" viewBox="0 0 15 15" fill="none" xmlns="http://www.w3.org/2000/svg">
<g clip-path="url(#clip0_49_110)">
<path d="M0 5.918C0.02 5.764 0.034 5.609 0.06 5.457C0.399 3.463 1.472 2.03 3.362 1.282C5.343 0.497997 7.557 1.072 8.969 2.677C9.923 3.761 10.358 5.035 10.301 6.471C10.269 7.279 10.028 8.044 9.713 8.783C9.118 10.179 8.306 11.447 7.374 12.637C6.818 13.347 6.217 14.023 5.629 14.707C5.531 14.822 5.393 14.902 5.273 14.999C5.195 14.999 5.117 14.999 5.039 14.999C4.95 14.934 4.848 14.882 4.774 14.803C3.367 13.293 2.098 11.68 1.115 9.857C0.686 9.062 0.325 8.238 0.136 7.349C0.082 7.099 0.045 6.845 0 6.592C0 6.367 0 6.143 0 5.918ZM5.15 13.876C5.189 13.816 5.2 13.794 5.216 13.776C5.957 12.945 6.656 12.079 7.293 11.165C7.997 10.153 8.627 9.1 9.041 7.932C9.219 7.43 9.362 6.915 9.37 6.378C9.391 4.864 8.836 3.606 7.61 2.702C6.342 1.767 4.932 1.589 3.502 2.241C1.788 3.021 0.967 4.433 0.944 6.301C0.934 7.065 1.185 7.78 1.483 8.473C2.027 9.741 2.774 10.889 3.617 11.975C4.107 12.606 4.62 13.22 5.15 13.876Z" fill="white"/>
<path d="M15 5.625C14.948 5.922 14.908 6.222 14.841 6.515C14.648 7.363 14.3 8.152 13.89 8.913C12.905 10.743 11.63 12.361 10.218 13.877C9.98298 14.129 9.70298 14.129 9.46798 13.878C9.21498 13.607 8.96698 13.331 8.72398 13.051C8.54198 12.841 8.56098 12.553 8.75598 12.382C8.95098 12.211 9.23598 12.23 9.42398 12.433C9.56298 12.583 9.69398 12.739 9.84098 12.906C9.99898 12.728 10.154 12.56 10.301 12.387C11.29 11.22 12.217 10.008 12.961 8.666C13.421 7.836 13.807 6.975 13.989 6.036C14.394 3.94 13.133 1.797 11.1 1.139C10.39 0.909 9.66498 0.875 8.93398 1.041C8.84498 1.061 8.74998 1.081 8.65998 1.071C8.43198 1.046 8.26698 0.861 8.25598 0.64C8.24398 0.406 8.37998 0.208 8.61598 0.156C8.85798 0.102 9.10498 0.071 9.34998 0.029C9.39798 0.02 9.44498 0.009 9.49198 0C9.70698 0 9.92198 0 10.137 0C10.17 0.008 10.202 0.02 10.235 0.022C10.715 0.054 11.183 0.151 11.628 0.334C13.513 1.109 14.602 2.519 14.941 4.519C14.967 4.672 14.981 4.827 15.001 4.981C15 5.195 15 5.41 15 5.625Z" fill="white"/>
<path d="M7.5 6.087C7.504 7.376 6.446 8.437 5.156 8.437C3.872 8.437 2.818 7.385 2.813 6.1C2.809 4.811 3.867 3.75 5.157 3.75C6.441 3.751 7.495 4.802 7.5 6.087ZM6.561 6.088C6.555 5.319 5.908 4.679 5.147 4.688C4.381 4.698 3.753 5.329 3.751 6.091C3.749 6.857 4.392 7.5 5.158 7.498C5.926 7.497 6.567 6.852 6.561 6.088Z" fill="white"/>
</g>
<defs>
<clipPath id="clip0_49_110">
<rect width="15" height="15" fill="white"/>
</clipPath>
</defs>
</svg>
