<svg width="18" height="18" viewBox="0 0 18 18" fill="none" xmlns="http://www.w3.org/2000/svg">
<g clip-path="url(#clip0_49_116)">
<path d="M0 9.8088C0 9.27 0 8.7312 0 8.1912C0.0108 8.1612 0.0288 8.1312 0.0312 8.1C0.0948 7.416 0.2436 6.75 0.4632 6.102C0.678 5.4696 0.9648 4.8696 1.3128 4.2972C1.8156 3.4704 2.4396 2.7504 3.1716 2.1216C3.7692 1.608 4.4292 1.1916 5.1384 0.8496C5.8224 0.5208 6.5376 0.2892 7.2816 0.1464C7.584 0.09 7.8888 0.0492 8.1912 0C8.7072 0 9.222 0 9.738 0C9.984 0.0372 10.2312 0.0732 10.4772 0.1116C11.694 0.3048 12.8184 0.7464 13.8552 1.4076C14.7648 1.9872 15.5424 2.7144 16.1976 3.5736C17.0112 4.6416 17.5524 5.8344 17.8272 7.146C17.8968 7.4796 17.9436 7.8192 18 8.1564C18 8.7072 18 9.258 18 9.8088C17.976 9.9384 17.946 10.0656 17.9292 10.1964C17.7744 11.4264 17.3664 12.5688 16.7304 13.6296C16.2468 14.4372 15.6528 15.156 14.9424 15.7764C14.3724 16.2732 13.7568 16.7076 13.08 17.0472C12.2544 17.4612 11.388 17.7528 10.4748 17.8968C10.2636 17.9304 10.0536 17.9652 9.8436 18C9.3168 18 8.7888 18 8.262 18C8.2416 17.9904 8.2212 17.9748 8.1996 17.9724C7.422 17.9064 6.6684 17.7372 5.9328 17.472C4.686 17.0232 3.5976 16.3272 2.658 15.3984C1.9896 14.7372 1.4304 13.9932 0.9972 13.1532C0.5844 12.3528 0.2892 11.514 0.132 10.6284C0.0828 10.356 0.0432 10.0824 0 9.8088ZM17.16 8.9688C17.1528 4.5228 13.5108 0.7128 8.7432 0.8424C4.4628 0.9588 0.7404 4.4892 0.8424 9.2172C0.936 13.5264 4.482 17.2608 9.2124 17.1576C13.554 17.0628 17.166 13.512 17.16 8.9688Z" fill="white"/>
<path d="M4.73761 5.7396C7.60201 5.7396 10.4184 5.7396 13.2768 5.7396C12.9456 6.0216 12.6444 6.2832 12.3384 6.5376C11.388 7.3308 10.4352 8.1216 9.48481 8.9124C9.37681 9.0024 9.26761 9.0888 9.16561 9.1848C9.05041 9.2928 8.95201 9.2916 8.82961 9.1872C8.31121 8.742 7.78801 8.3028 7.26481 7.8648C6.49921 7.2252 5.73001 6.588 4.96441 5.9496C4.89601 5.8932 4.83481 5.8308 4.73761 5.7396Z" fill="white"/>
<path d="M10.0104 9.4848C11.1096 10.4004 12.2052 11.3124 13.3368 12.2556C10.4292 12.2556 7.57681 12.2556 4.66681 12.2556C5.79121 11.3184 6.88321 10.4064 7.99081 9.4836C8.27881 9.7248 8.57401 9.9612 8.85601 10.212C8.96641 10.3104 9.02761 10.314 9.14161 10.2096C9.41761 9.9588 9.71281 9.7296 10.0104 9.4848Z" fill="white"/>
<path d="M10.6272 8.9796C11.7276 8.0592 12.8052 7.158 13.908 6.2364C13.908 8.0724 13.908 9.8808 13.908 11.7204C12.8088 10.8036 11.7288 9.9 10.6272 8.9796Z" fill="white"/>
<path d="M4.1076 6.246C5.2068 7.164 6.2892 8.0676 7.3812 8.9784C6.2892 9.888 5.2068 10.7904 4.1076 11.706C4.1076 9.8868 4.1076 8.0808 4.1076 6.246Z" fill="white"/>
</g>
<defs>
<clipPath id="clip0_49_116">
<rect width="18" height="18" fill="white"/>
</clipPath>
</defs>
</svg>
