<svg width="45" height="45" viewBox="0 0 45 45" fill="none" xmlns="http://www.w3.org/2000/svg">
<g clip-path="url(#clip0_88_5)">
<path d="M13.5938 -0.0625C6.07259 -0.0625 -0.0625 6.07259 -0.0625 13.5937V31.4062C-0.0625 38.9264 6.07237 45.0625 13.5938 45.0625H31.4062C38.9266 45.0625 45.0625 38.9266 45.0625 31.4062V13.5937C45.0625 6.07237 38.9264 -0.0625 31.4062 -0.0625H13.5938ZM13.5938 3.5H31.4062C37.0009 3.5 41.5 7.998 41.5 13.5937V31.4062C41.5 37.0006 37.0006 41.5 31.4062 41.5H13.5938C7.998 41.5 3.5 37.0008 3.5 31.4062V13.5937C3.5 7.99779 7.99779 3.5 13.5938 3.5ZM34.375 8.25C33.0628 8.25 32 9.31281 32 10.625C32 11.9372 33.0628 13 34.375 13C35.6872 13 36.75 11.9372 36.75 10.625C36.75 9.31281 35.6872 8.25 34.375 8.25ZM22.5 10.625C15.963 10.625 10.625 15.963 10.625 22.5C10.625 29.037 15.963 34.375 22.5 34.375C29.037 34.375 34.375 29.037 34.375 22.5C34.375 15.963 29.037 10.625 22.5 10.625ZM22.5 14.1875C27.1113 14.1875 30.8125 17.8887 30.8125 22.5C30.8125 27.1113 27.1113 30.8125 22.5 30.8125C17.8887 30.8125 14.1875 27.1113 14.1875 22.5C14.1875 17.8887 17.8887 14.1875 22.5 14.1875Z" fill="white"/>
</g>
<defs>
<clipPath id="clip0_88_5">
<rect width="45" height="45" fill="white"/>
</clipPath>
</defs>
</svg>
