<svg width="368" height="131" viewBox="0 0 368 131" fill="none" xmlns="http://www.w3.org/2000/svg">
<g clip-path="url(#clip0_43_14)">
<path d="M110.621 0C162.987 0 215.361 0 267.727 0C267.727 0.264721 267.794 0.551502 267.705 0.786809C267.19 2.21336 266.631 3.63256 266.093 5.05175C265.556 6.45624 265.026 7.85338 264.482 9.25787C263.944 10.6403 263.392 12.0227 262.84 13.4052C262.494 14.2655 262.104 15.1038 261.781 15.9715C261.214 17.4642 260.706 18.9717 260.132 20.4644C259.543 21.9865 258.866 23.4719 258.314 25.0014C258.115 25.5456 257.961 25.8617 257.306 25.8617C243.182 25.8617 229.058 25.8838 214.934 25.8838C193.634 25.8912 172.334 25.8838 151.035 25.8838C150.829 25.8838 150.622 25.8912 150.424 25.8838C149.916 25.8617 149.68 26.0015 149.68 26.6118C149.702 34.4725 149.695 42.3406 149.695 50.2013C149.695 51.0029 149.695 51.0029 150.483 51.0029C170.163 50.9955 189.851 50.9808 209.532 50.9735C221.86 50.9661 234.181 50.9735 246.509 50.9735C246.957 50.9735 247.406 50.9882 247.855 50.9661C248.356 50.9514 248.407 51.2382 248.29 51.5985C248.061 52.2823 247.811 52.9515 247.554 53.6207C246.722 55.7752 245.883 57.9224 245.044 60.0769C244.602 61.2167 244.161 62.3564 243.726 63.5036C242.858 65.7831 242.012 68.0774 241.128 70.3495C240.466 72.0629 239.723 73.7394 239.075 75.4601C238.825 76.1146 238.457 76.2469 237.794 76.2396C227.983 76.2028 218.173 76.1955 208.362 76.1881C189.064 76.1807 169.773 76.1881 150.475 76.1734C149.872 76.1734 149.673 76.3058 149.68 76.9455C149.702 86.0784 149.702 95.2039 149.68 104.337C149.68 104.918 149.842 105.043 150.402 105.043C172.563 105.028 194.716 105.035 216.877 105.035C217.304 105.035 217.738 105.013 218.165 105.013C221.109 105.006 224.053 104.999 226.997 104.991C227.387 104.991 227.527 105.182 227.409 105.535C227.218 106.109 227.005 106.675 226.776 107.234C226.349 108.285 225.878 109.33 225.474 110.389C224.892 111.889 224.355 113.403 223.788 114.904C223.347 116.08 222.868 117.249 222.456 118.433C222.162 119.279 221.992 120.169 221.676 120.999C221.131 122.455 220.491 123.875 219.932 125.323C219.321 126.904 218.754 128.5 218.173 130.088C218.018 130.522 217.775 130.706 217.267 130.706C191.618 130.691 165.961 130.691 140.311 130.691C139.678 130.691 139.045 130.713 138.412 130.684C138.191 130.669 137.912 130.574 137.787 130.412C137.205 129.662 136.668 128.882 136.131 128.103C135.431 127.088 134.762 126.051 134.055 125.036C133.076 123.632 132.061 122.242 131.089 120.83C130.272 119.654 129.499 118.455 128.69 117.279C127.505 115.551 126.298 113.83 125.12 112.102C124.171 110.705 123.251 109.278 122.294 107.888C120.807 105.727 119.291 103.587 117.804 101.425C117.157 100.476 116.582 99.4688 115.935 98.5202C114.89 96.9834 113.815 95.4759 112.748 93.9538C112.166 93.1229 111.622 92.2699 111.004 91.4831C110.687 91.0786 110.496 90.6963 110.496 90.1668C110.503 60.4299 110.503 30.6929 110.51 0.955936C110.488 0.639742 110.577 0.316194 110.621 0Z" fill="white"/>
<path d="M85.3539 0C91.529 0 97.6967 0 103.872 0C103.901 0.551502 103.945 1.09565 103.945 1.64715C103.953 8.73579 103.857 15.8244 103.997 22.9057C104.034 24.9132 103.408 26.2809 102.017 27.6339C98.0867 31.465 94.2743 35.4138 90.4103 39.3257C86.1488 43.6422 81.8874 47.9586 77.6259 52.275C77.4272 52.4735 77.2432 52.6794 77.0666 52.8706C78.1779 54.5104 79.2525 56.0914 80.3271 57.6724C83.3741 62.1432 86.4359 66.6067 89.4755 71.0849C91.9338 74.7027 94.3626 78.3426 96.8208 81.9605C99.8531 86.4166 102.908 90.8654 105.955 95.3142C107.964 98.2555 109.973 101.197 111.975 104.146C114.367 107.66 116.744 111.183 119.129 114.698C120.866 117.257 122.61 119.816 124.347 122.382C126.084 124.941 127.828 127.492 129.565 130.059C129.668 130.213 129.727 130.404 129.801 130.581C129.61 130.625 129.426 130.713 129.234 130.713C115.626 130.721 102.01 130.713 88.401 130.728C87.8931 130.728 87.5767 130.551 87.3043 130.132C86.5021 128.904 85.6631 127.706 84.8387 126.492C81.8285 122.088 78.8183 117.683 75.8154 113.271C72.2605 108.043 68.713 102.807 65.1581 97.5717C63.0311 94.4391 60.8893 91.314 58.7549 88.1814C56.9591 85.5416 55.1559 82.9017 53.36 80.2619C52.7786 79.4089 52.1971 78.5559 51.601 77.6735C51.4464 77.8058 51.336 77.8941 51.2403 77.9897C47.3248 82.0708 43.4167 86.1593 39.4938 90.2257C39.1111 90.6227 38.9418 91.0051 38.9418 91.564C38.9565 104.285 38.9565 117.007 38.9565 129.735C38.9565 130.721 38.9565 130.721 37.9408 130.721C25.7379 130.721 13.5351 130.721 1.33218 130.721C0.0809831 130.721 0.206103 130.882 0.206103 129.625C0.206103 89.005 0.206103 48.3851 0.198743 7.76514C0.198743 7.42689 0.132503 7.08863 0.0957031 6.75038C0.0957031 4.50025 0.0957031 2.25748 0.0957031 0.00735335C13.0567 0.00735335 26.0176 0.00735335 38.9712 0.00735335C38.9639 0.250014 38.9491 0.492675 38.9491 0.735335C38.9491 16.7215 38.9418 32.7077 38.9418 48.6939C38.9418 48.841 38.9712 48.988 39.0007 49.2086C39.1258 49.0983 39.1847 49.0469 39.2362 48.9881C41.7607 46.2967 44.2851 43.598 46.817 40.9141C51.4317 36.0094 56.0538 31.112 60.6759 26.2147C63.6419 23.0675 66.6154 19.9202 69.5888 16.7804C74.5127 11.5742 79.4365 6.37536 84.353 1.16918C84.7283 0.794162 85.0301 0.389728 85.3539 0Z" fill="white"/>
<path d="M275.455 0C289.557 0 303.666 0 317.768 0C318.217 1.23536 318.651 2.47808 319.122 3.70609C320.491 7.27982 321.882 10.8462 323.251 14.4273C324.186 16.8759 325.091 19.332 326.033 21.7733C327.152 24.6852 328.308 27.5824 329.434 30.4944C330.795 34.0093 332.135 37.5389 333.482 41.0611C335.241 45.6643 336.985 50.2749 338.744 54.8781C340.039 58.2606 341.357 61.6432 342.667 65.0257C343.955 68.3568 345.243 71.6878 346.524 75.0263C347.436 77.4088 348.327 79.8059 349.239 82.1884C350.27 84.8724 351.322 87.549 352.353 90.2404C353.309 92.7405 354.244 95.248 355.201 97.7408C356.253 100.491 357.313 103.234 358.366 105.977C359.33 108.477 360.279 110.984 361.251 113.484C362.119 115.72 363.01 117.948 363.871 120.183C364.931 122.941 365.991 125.706 367.021 128.478C367.33 129.301 367.551 130.162 367.809 131.007C354.561 131.007 341.32 131.007 328.072 131.007C327.093 128.11 326.114 125.22 325.143 122.316C324.421 120.154 323.73 117.992 323.008 115.83C322.199 113.403 321.374 110.984 320.58 108.55C320.44 108.124 320.27 107.933 319.777 107.933C305.572 107.947 291.368 107.947 277.17 107.947C275.617 107.947 274.064 107.962 272.511 107.94C272.129 107.933 271.886 108.05 271.768 108.41C271.282 109.889 270.796 111.367 270.303 112.845C269.413 115.521 268.522 118.198 267.639 120.874C266.925 123.036 266.219 125.206 265.49 127.36C265.078 128.581 264.614 129.794 264.18 131.007C251.057 131.007 237.934 131.007 224.811 131.007C224.826 130.728 224.767 130.419 224.863 130.169C225.584 128.235 226.327 126.316 227.071 124.397C228.042 121.882 229.021 119.367 229.993 116.852C231.185 113.771 232.37 110.683 233.555 107.602C234.674 104.69 235.8 101.778 236.926 98.8658C237.964 96.1819 238.994 93.4905 240.032 90.8066C241.077 88.1005 242.122 85.4019 243.167 82.6958C244.3 79.7692 245.427 76.8352 246.56 73.9086C247.347 71.8864 248.142 69.8642 248.923 67.842C250.063 64.8934 251.189 61.9373 252.323 58.9886C253.427 56.1134 254.538 53.2383 255.642 50.3631C256.923 47.0321 258.203 43.701 259.484 40.3699C260.367 38.083 261.243 35.7888 262.134 33.5019C263.172 30.8179 264.217 28.1339 265.262 25.4426C266.292 22.7954 267.315 20.1482 268.338 17.501C269.472 14.5523 270.605 11.5962 271.731 8.64019C272.533 6.55184 273.306 4.45613 274.138 2.38249C274.454 1.53685 274.602 0.566208 275.455 0ZM296.718 34.899C296.637 34.9211 296.564 34.9358 296.483 34.9578C296.218 35.7373 295.96 36.5168 295.695 37.3036C294.68 40.3773 293.671 43.4583 292.641 46.532C291.588 49.6866 290.514 52.8265 289.461 55.9737C288.438 59.0474 287.437 62.1358 286.407 65.2095C285.524 67.8494 284.589 70.4672 283.706 73.107C282.742 75.9749 281.822 78.85 280.872 81.7178C280.593 82.5561 280.585 82.5635 281.461 82.5635C291.515 82.5635 301.569 82.5635 311.622 82.5635C311.777 82.5635 311.924 82.534 312.13 82.5046C306.986 66.592 301.848 50.7455 296.718 34.899Z" fill="white"/>
</g>
<defs>
<clipPath id="clip0_43_14">
<rect width="368" height="131" fill="white"/>
</clipPath>
</defs>
</svg>
