<svg width="158" height="61" viewBox="0 0 158 61" fill="none" xmlns="http://www.w3.org/2000/svg">
<g clip-path="url(#clip0_41_4)">
<path d="M157.5 32.6924C157.371 33.3465 157.292 34.013 157.106 34.6516C155.941 38.6571 152.222 41.4479 148.009 41.4542C139.97 41.4666 131.927 41.4666 123.888 41.4542C119.243 41.4479 115.247 38.0529 114.519 33.5334C114.441 33.0412 114.397 32.5398 114.397 32.0414C114.39 24.5131 114.384 16.9816 114.393 9.45326C114.4 5.00229 117.813 1.02164 122.247 0.292788C122.874 0.190001 123.516 0.137051 124.149 0.133936C127.78 0.118362 131.407 0.127706 135.038 0.124592C135.278 0.124592 135.514 0.124592 135.753 0.109018C136.462 0.0622966 137.069 0.286559 137.576 0.76623C139.17 2.28311 140.757 3.80311 142.344 5.3231C147.026 9.80523 151.706 14.2905 156.395 18.7664C156.977 19.3239 157.434 19.9188 157.45 20.7567C157.45 20.7785 157.481 20.7972 157.5 20.819C157.5 24.7778 157.5 28.7335 157.5 32.6924ZM133.684 4.58802C133.58 4.57868 133.505 4.56934 133.432 4.56934C130.277 4.56934 127.125 4.55376 123.97 4.57245C121.104 4.59114 118.878 6.7995 118.874 9.6308C118.862 17.0657 118.871 24.5037 118.871 31.9386C118.871 32.6426 118.988 33.3309 119.293 33.9694C120.257 35.9816 121.875 37.0125 124.121 37.0188C129.342 37.0312 134.563 37.0219 139.784 37.0219C142.451 37.0219 145.118 37.0281 147.789 37.0219C150.805 37.0157 153.022 34.8166 153.022 31.8389C153.025 29.0201 153.022 26.2044 153.022 23.3855C153.022 23.2765 153.022 23.1675 153.022 23.0304C152.877 23.0304 152.777 23.0304 152.673 23.0304C147.31 23.0304 141.944 23.0304 136.581 23.0304C136.295 23.0304 136.008 23.0429 135.725 23.0211C134.708 22.9432 133.832 22.1303 133.713 21.1273C133.668 20.7567 133.684 20.3767 133.684 19.9998C133.684 15.8354 133.684 11.6678 133.684 7.50343C133.684 6.54097 133.684 5.57851 133.684 4.58802ZM149.609 18.5359C145.798 14.8916 142.035 11.291 138.228 7.64671C138.228 11.3252 138.228 14.9228 138.228 18.5359C142.013 18.5359 145.779 18.5359 149.609 18.5359Z" fill="white"/>
<path d="M0.0503845 14.4275C0.12596 14.1005 0.179493 13.7641 0.280261 13.4464C0.938401 11.4187 2.31451 10.1323 4.39285 9.58408C4.47472 9.56228 4.55659 9.55916 4.6794 9.54047C4.6794 9.68687 4.6794 9.80523 4.6794 9.9267C4.67626 13.5834 4.67311 17.2401 4.67311 20.8968C4.67311 24.5629 4.68255 28.229 4.68885 31.895C4.69515 34.7294 6.85221 36.8693 9.71779 36.8693C40.2284 36.8724 70.7358 36.8724 101.246 36.8693C104.106 36.8693 106.263 34.7201 106.266 31.8857C106.269 30.5463 106.266 29.2101 106.266 27.8708C106.275 21.8593 106.288 15.8447 106.297 9.83326C106.297 9.74916 106.297 9.66506 106.297 9.54982C106.408 9.56539 106.49 9.56851 106.568 9.5872C109.043 10.1541 110.895 12.3874 110.901 14.901C110.917 20.6788 110.933 26.4567 110.895 32.2314C110.867 36.6481 107.447 40.5665 103.06 41.2922C102.462 41.3919 101.848 41.4511 101.243 41.4511C70.7327 41.4573 40.2252 41.4573 9.71465 41.4573C5.17695 41.4573 1.36666 38.5045 0.308602 34.1626C0.192089 33.6798 0.135407 33.1845 0.0503845 32.6955C0.0503845 26.6062 0.0503845 20.5168 0.0503845 14.4275Z" fill="white"/>
<path d="M77.2889 0.00934796C77.0811 0.566888 76.8764 1.12754 76.6622 1.68197C76.1143 3.09918 75.5538 4.51327 75.0122 5.93048C74.9208 6.1672 74.8106 6.2513 74.543 6.2513C67.7978 6.24819 61.0527 6.25753 54.3044 6.26065C52.352 6.26065 50.3965 6.26065 48.4441 6.26065C48.3307 6.26065 48.2205 6.26065 48.0851 6.26065C48.0851 8.32884 48.0851 10.369 48.0851 12.4403C56.2095 12.4403 64.3371 12.4403 72.5087 12.4403C71.7026 14.5116 70.909 16.5424 70.1123 18.5857C62.7752 18.5857 55.4412 18.5857 48.0851 18.5857C48.0851 20.9498 48.0851 23.3014 48.0851 25.678C54.4839 25.678 60.8795 25.678 67.3129 25.678C67.2405 25.896 67.1838 26.0798 67.1145 26.2604C66.7713 27.1481 66.4154 28.0296 66.0785 28.9173C65.7352 29.8237 65.4046 30.7332 65.0739 31.6427C65.0015 31.8421 64.9007 31.9293 64.6614 31.9293C58.269 31.9199 51.8734 31.9199 45.4809 31.9293C45.2731 31.9293 45.1377 31.8576 45.0306 31.705C44.4984 30.9326 43.9694 30.157 43.4341 29.3876C42.6752 28.2944 41.91 27.2042 41.151 26.1078C40.6283 25.3509 40.1087 24.5909 39.586 23.8372C39.227 23.3201 38.8586 22.8124 38.5122 22.2891C38.4398 22.1832 38.4177 22.0275 38.4177 21.8936C38.4177 15.9444 38.4177 9.99834 38.4177 4.04918C38.4177 2.70049 38.4146 1.35492 38.4114 0.00623322C51.3727 0.00934796 64.3308 0.00934796 77.2889 0.00934796Z" fill="white"/>
<path d="M36.7551 0.00935364C36.7519 1.97787 36.7488 3.94951 36.7551 5.91803C36.7551 6.1236 36.6889 6.26688 36.5472 6.41016C34.45 8.50638 32.3591 10.6088 30.265 12.7113C30.2115 12.7642 30.1642 12.8203 30.0981 12.8919C34.4469 19.218 38.7893 25.5378 43.1633 31.9013C43.0373 31.9106 42.9491 31.9231 42.8641 31.9231C39.5955 31.9231 36.3268 31.9231 33.0613 31.9293C32.8535 31.9293 32.7401 31.8514 32.6299 31.6863C29.7423 27.4783 26.8515 23.2734 23.9576 19.0685C23.9261 19.0249 23.8883 18.9813 23.841 18.9221C23.7623 18.9969 23.693 19.056 23.6269 19.1246C22.7043 20.0777 21.7753 21.0246 20.8621 21.987C20.7582 22.096 20.6858 22.2767 20.6858 22.4262C20.6763 25.4693 20.6795 28.5155 20.6795 31.5586C20.6795 31.6708 20.6795 31.7798 20.6795 31.9075C17.4895 31.9075 14.3311 31.9075 11.1443 31.9075C11.1443 21.2644 11.1443 10.6369 11.1443 0.00935364C14.3279 0.00935364 17.5084 0.00935364 20.692 0.00935364C20.6889 0.0373864 20.6795 0.0654191 20.6795 0.0934518C20.6795 4.01492 20.6795 7.93327 20.6795 11.8547C20.6795 11.9108 20.6983 11.97 20.7172 12.0603C20.8023 11.9669 20.8621 11.9046 20.9219 11.8454C23.4915 9.14179 26.0674 6.44131 28.6401 3.73771C29.821 2.49804 30.9987 1.25214 32.1796 0.00935364C33.7068 0.00935364 35.231 0.00935364 36.7551 0.00935364Z" fill="white"/>
<path d="M80.6615 0.00935364C80.7685 0.0280421 80.8756 0.0654191 80.9795 0.0654191C83.7727 0.0685338 86.5627 0.0716486 89.3558 0.0623043C89.6078 0.0623043 89.7148 0.133944 89.8061 0.36755C93.2197 9.19786 96.6426 18.0251 100.062 26.8522C100.689 28.4688 101.313 30.0854 101.939 31.7019C101.971 31.7798 101.996 31.8576 102.037 31.9729C101.917 31.9729 101.826 31.9729 101.735 31.9729C98.6674 31.9729 95.5971 31.9698 92.53 31.9791C92.3001 31.9791 92.2025 31.9199 92.1301 31.6988C91.579 30.0168 91.0059 28.3411 90.4517 26.6591C90.3761 26.4318 90.2785 26.3383 90.0171 26.3383C86.2257 26.3477 82.4312 26.3477 78.6398 26.3383C78.3784 26.3383 78.2808 26.4286 78.2084 26.6591C77.6573 28.3411 77.0874 30.0168 76.5331 31.6988C76.467 31.895 76.3851 31.9791 76.1584 31.9791C73.1007 31.9698 70.0399 31.9729 66.9822 31.9729C66.8972 31.9729 66.8122 31.9729 66.6768 31.9729C66.7272 31.8358 66.7618 31.7331 66.8027 31.6334C69.8132 23.8995 72.8205 16.1655 75.8309 8.42852C76.8858 5.71557 77.9439 3.00263 79.0019 0.292796C79.0397 0.196238 79.0807 0.102796 79.1216 0.00935364C79.6317 0.00935364 80.1482 0.00935364 80.6615 0.00935364ZM84.4875 8.45966C84.456 8.45966 84.4245 8.45966 84.393 8.45966C83.0799 12.3562 81.7668 16.2528 80.4505 20.1649C83.1051 20.1649 85.6999 20.1649 88.323 20.1649C87.0382 16.2465 85.7628 12.3531 84.4875 8.45966Z" fill="white"/>
<path d="M27.4939 51.7266C27.4876 46.8053 31.5309 42.8091 36.5063 42.8153C41.4722 42.8215 45.4998 46.8053 45.503 51.7173C45.5061 56.6386 41.4691 60.6317 36.4905 60.6286C31.5246 60.6254 27.497 56.6417 27.4939 51.7266ZM36.4874 56.0405C38.8838 56.0468 40.8582 54.1032 40.8645 51.7328C40.8708 49.3625 38.9058 47.4096 36.5094 47.4033C34.113 47.3971 32.1386 49.3407 32.1323 51.711C32.1229 54.0814 34.0879 56.0343 36.4874 56.0405Z" fill="white"/>
<path d="M139.548 51.736C139.541 56.6573 135.495 60.641 130.516 60.6317C125.553 60.6192 121.532 56.623 121.539 51.7142C121.545 46.7929 125.598 42.8029 130.57 42.8184C135.539 42.834 139.554 46.8209 139.548 51.736ZM130.523 56.0405C132.922 56.0499 134.9 54.1125 134.909 51.7422C134.919 49.3687 132.96 47.4158 130.564 47.4033C128.167 47.3909 126.19 49.3314 126.177 51.7017C126.168 54.072 128.129 56.0312 130.523 56.0405Z" fill="white"/>
</g>
<defs>
<clipPath id="clip0_41_4">
<rect width="157.45" height="60.6223" fill="white"/>
</clipPath>
</defs>
</svg>
