<svg width="17" height="17" viewBox="0 0 17 17" fill="none" xmlns="http://www.w3.org/2000/svg">
<g clip-path="url(#clip0_49_124)">
<path d="M8.4796 0.107667C9.4962 0.068 10.4686 0.270867 11.4161 0.616533C12.3329 0.950867 13.1557 1.44613 13.9026 2.074C14.5939 2.6554 15.1719 3.33427 15.6434 4.1004C16.1137 4.86653 16.4413 5.6916 16.6453 6.57107C16.8107 7.28733 16.8776 8.00927 16.8583 8.73913C16.8345 9.67413 16.6532 10.5797 16.3234 11.4591C16.0027 12.3171 15.5459 13.0934 14.9725 13.8006C14.399 14.5101 13.7145 15.1017 12.9404 15.5856C12.0281 16.1557 11.0443 16.5444 9.98126 16.7212C9.02926 16.8799 8.07386 16.8708 7.12186 16.7461C6.4022 16.6521 5.7154 16.4254 5.049 16.133C4.27153 15.793 3.5734 15.3317 2.93646 14.7787C2.21793 14.1542 1.63766 13.4141 1.16393 12.5879C0.65393 11.6983 0.33433 10.7406 0.18813 9.73193C0.111063 9.197 0.0895298 8.6462 0.107663 8.1056C0.142796 7.0312 0.387596 5.99873 0.83753 5.015C1.21833 4.18313 1.7136 3.43627 2.3358 2.76533C2.93873 2.1148 3.62666 1.581 4.39733 1.1458C5.27 0.650533 6.20726 0.3366 7.19666 0.189267C7.6194 0.1258 8.05233 0.1326 8.4796 0.107667ZM4.02106 5.46833C4.0256 6.32173 4.20126 7.0482 4.437 7.76107C4.73053 8.65073 5.12946 9.49393 5.5964 10.3065C6.1506 11.2721 6.79546 12.172 7.57066 12.971C7.87893 13.2883 8.22573 13.5739 8.58046 13.8403C8.823 14.0227 9.09613 14.1848 9.37946 14.2891C10.0413 14.5316 10.6409 14.2993 11.2132 13.9683C11.2993 13.9185 11.3005 13.8743 11.2483 13.7847C11.0092 13.3835 10.7837 12.9755 10.5513 12.5698C10.2782 12.0927 10.0028 11.6178 9.7274 11.1418C9.68546 11.0681 9.639 11.0013 9.5336 11.0568C9.17886 11.2427 8.8332 11.1758 8.49773 11.0058C7.9458 10.7247 7.565 10.2657 7.23973 9.75687C6.8544 9.15393 6.579 8.5034 6.511 7.786C6.4668 7.32247 6.55066 6.88613 6.95413 6.579C7.02553 6.5246 7.0346 6.48607 6.98586 6.40447C6.6334 5.80153 6.28886 5.1952 5.94093 4.59C5.7766 4.3044 5.61113 4.0188 5.44453 3.73433C5.4094 3.6754 5.37993 3.59947 5.28133 3.6584C4.93906 3.86127 4.60246 4.07207 4.34973 4.38487C4.0732 4.72713 4.012 5.1374 4.02106 5.46833ZM6.7592 2.5568C6.68213 2.5806 6.59826 2.5942 6.52913 2.6316C6.28886 2.7642 6.06106 2.92173 5.81286 3.03733C5.56466 3.15407 5.48986 3.4544 5.65306 3.70827C5.763 3.8794 5.85706 4.0596 5.95906 4.23527C6.3512 4.91527 6.74106 5.5964 7.1366 6.27413C7.26466 6.49287 7.51513 6.5586 7.73386 6.4362C7.9832 6.2968 8.23026 6.154 8.47506 6.00667C8.7142 5.8616 8.77766 5.64853 8.63826 5.4026C8.1362 4.51973 7.62733 3.6414 7.12186 2.76193C7.0414 2.6248 6.92353 2.56133 6.7592 2.5568ZM11.747 13.8335C11.8184 13.8108 11.8966 13.7995 11.9612 13.7632C12.206 13.6283 12.4474 13.4867 12.6888 13.345C12.9461 13.1943 13.0141 12.9721 12.8679 12.7183C12.3703 11.8535 11.8705 10.9899 11.3673 10.1286C11.2245 9.88267 10.9865 9.82713 10.7372 9.96993C10.5037 10.1037 10.2714 10.2374 10.0379 10.3723C9.8056 10.506 9.7376 10.7338 9.85773 10.9752C9.87926 11.0194 9.90533 11.0613 9.93026 11.1044C10.4063 11.9317 10.8834 12.7579 11.3583 13.5853C11.4444 13.7383 11.56 13.8301 11.747 13.8335Z" fill="white"/>
</g>
<defs>
<clipPath id="clip0_49_124">
<rect width="17" height="17" fill="white"/>
</clipPath>
</defs>
</svg>
