<svg width="79" height="93" viewBox="0 0 79 93" fill="none" xmlns="http://www.w3.org/2000/svg">
<g clip-path="url(#clip0_54_133)">
<path d="M78.77 30.0812C79.0472 37.2915 78.7304 44.4695 77.4566 51.5893C74.6318 67.4003 66.4808 79.6029 51.9344 87.337C48.3242 89.2576 44.4434 90.6868 40.6484 92.2582C40.0544 92.5039 39.203 92.5427 38.5958 92.3358C30.6032 89.6392 23.198 85.9144 16.8884 80.2819C9.3512 73.5501 4.7642 65.1564 2.4014 55.5275C0.540201 47.9292 0.0319999 40.1886 0.0583999 32.4027C0.0781999 27.4492 0.1706 22.4893 0.2432 17.5358C0.2762 15.1367 1.4774 13.9145 3.9326 13.8692C9.8264 13.7658 15.6278 13.1062 21.2312 11.1856C26.8148 9.27143 31.7582 6.32263 36.1076 2.40383C36.4178 2.12576 36.7148 1.84123 37.0316 1.56963C38.7146 0.101696 40.2986 0.140496 42.0212 1.5955C43.8296 3.11516 45.605 4.68656 47.5388 6.0381C54.7724 11.0821 62.9696 13.3131 71.741 13.7528C72.9026 13.811 74.0576 13.8304 75.2192 13.8757C77.4896 13.9662 78.7436 15.182 78.7568 17.4C78.7898 21.6228 78.77 25.852 78.77 30.0812ZM72.2294 31.4715C72.2294 28.1218 72.203 24.7785 72.2492 21.4288C72.2624 20.4782 71.8994 20.0902 70.9622 20.1354C70.7708 20.1419 70.5794 20.116 70.3814 20.1031C59.1152 19.4112 48.9512 15.9192 40.2722 8.6959C39.6716 8.19796 39.2756 8.26263 38.708 8.72823C35.5004 11.399 31.9892 13.6235 28.181 15.3889C21.8516 18.3183 15.1526 19.7216 8.1962 20.129C6.83 20.2066 6.8102 20.2389 6.7904 21.5775C6.7376 25.3993 6.665 29.2211 6.6452 33.0364C6.6188 40.3179 7.0808 47.5541 8.876 54.6545C10.7108 61.9101 14.0636 68.3638 19.4162 73.757C24.9008 79.286 31.58 82.9332 38.8862 85.591C39.2426 85.7204 39.7376 85.7333 40.094 85.604C46.4036 83.3212 52.2578 80.2625 57.3332 75.8781C65.1872 69.0946 69.299 60.371 71.0612 50.4382C72.1766 44.1591 72.4472 37.8282 72.2294 31.4715Z" fill="#132D61"/>
<path d="M56.6072 37.7248C56.2112 38.4555 55.967 39.3221 55.3994 39.8847C49.4198 45.8146 43.4072 51.7057 37.3682 57.5775C35.8964 59.0131 34.0154 58.9807 32.5436 57.5645C29.5868 54.7063 26.6432 51.8286 23.7194 48.9315C22.307 47.5347 22.2542 45.5365 23.528 44.2626C24.8678 42.924 26.8544 42.9499 28.3526 44.3855C30.3062 46.2608 32.2532 48.1491 34.1606 50.0826C34.7876 50.7163 35.1836 50.6646 35.7974 50.0567C40.6748 45.2391 45.5852 40.4537 50.4824 35.649C51.1886 34.9571 51.9542 34.4333 52.9904 34.388C54.8846 34.3104 56.4026 35.746 56.6072 37.7248Z" fill="#132D61"/>
</g>
<defs>
<clipPath id="clip0_54_133">
<rect width="79" height="93" fill="white"/>
</clipPath>
</defs>
</svg>
