<svg width="81" height="95" viewBox="0 0 81 95" fill="none" xmlns="http://www.w3.org/2000/svg">
<g clip-path="url(#clip0_54_142)">
<path d="M40.2943 -0.0442478C42.6855 -0.0442478 45.0833 -0.0507494 47.4745 -0.0442478C49.5521 -0.0377462 51.0874 1.16505 51.2769 3.21305C51.4206 4.80594 51.303 6.43783 51.1462 8.03722C51.0025 9.53259 49.9767 10.4103 48.5786 10.7744C47.9187 10.9434 47.6835 11.236 47.7162 11.8862C47.7554 12.7119 47.6574 13.5441 47.7619 14.3568C47.8077 14.7014 48.1474 15.176 48.4675 15.2865C51.2311 16.2357 54.0078 17.1329 56.7975 17.9912C57.0589 18.0692 57.5489 17.8806 57.7383 17.6531C58.9209 16.2032 60.0903 14.7339 61.1814 13.2125C62.7167 11.067 65.0622 10.7419 67.1202 12.4193C68.3289 13.401 69.5833 14.3308 70.8311 15.2605C72.6997 16.6518 73.0982 18.8949 71.7131 20.7608C70.7462 22.0611 69.7009 23.303 68.649 24.5318C68.1263 25.1494 68.1525 25.5785 68.7078 26.2092C70.3999 28.1466 72.1378 30.0581 73.6143 32.1516C76.3845 36.0851 78.2334 40.4411 79.331 45.1353C80.2718 49.1533 80.5985 53.1972 80.2914 57.2998C80.0105 60.9862 79.2265 64.562 77.9394 68.0274C75.8487 73.6512 72.6539 78.5729 68.3419 82.7405C63.161 87.7532 57.0458 91.108 50.0225 92.9154C45.6713 94.0337 41.2613 94.3003 36.8513 93.9752C31.899 93.6111 27.1623 92.1808 22.6935 89.9702C18.4534 87.8702 14.7098 85.12 11.4366 81.7132C6.92208 77.0126 3.74688 71.5317 1.92408 65.3097C0.787281 61.4348 0.140482 57.4558 0.258082 53.4053C0.336482 50.7852 0.721948 48.1975 1.29688 45.6229C2.27035 41.2668 3.98208 37.2359 6.26875 33.4324C7.96088 30.6107 10.0515 28.0881 12.4035 25.7931C16.5849 21.7231 21.4522 18.6803 26.9729 16.7429C28.7107 16.1317 30.5009 15.6636 32.2845 15.202C32.8463 15.0589 33.0162 14.7924 32.9835 14.2787C32.9705 14.0577 32.9639 13.8301 32.9901 13.6156C33.1599 12.1397 33.0293 10.9434 31.2718 10.3453C29.9847 9.90968 29.5339 8.64837 29.5078 7.32205C29.4817 6.02173 29.4686 4.71491 29.5078 3.4146C29.5731 1.32759 31.0366 -0.0507494 33.1338 -0.057251C35.5054 -0.0442478 37.8966 -0.0442478 40.2943 -0.0442478ZM29.9194 42.7687C30.1742 42.8987 30.429 43.0353 30.6838 43.1653C32.2779 43.991 33.8721 44.8167 35.4662 45.6424C35.6687 45.7724 35.8713 45.896 36.0738 46.026C36.5703 46.2796 37.0669 46.5266 37.5634 46.7802C37.7855 46.9102 38.0142 47.0337 38.2363 47.1638C38.7198 47.1118 39.1967 47.0663 39.6802 47.0142C40.1441 47.5994 40.6537 47.6384 41.2155 47.1638C42.2021 47.4498 43.2866 47.5734 44.1621 48.061C46.2658 49.2508 47.4222 51.1428 47.6117 53.5743C47.6378 53.9839 47.6639 54.3935 47.6901 54.8031C47.2327 58.9056 43.9465 61.8444 39.8566 61.6233C38.8243 61.5648 37.8117 61.0122 36.7925 60.6806C36.7337 60.6286 36.6814 60.5766 36.6226 60.531C35.2963 59.6923 34.2641 58.6001 33.7283 57.0982C33.6565 56.9097 33.5911 56.7211 33.5193 56.5261C33.1991 55.9214 33.0293 55.1542 32.5458 54.7446C29.9651 52.5471 27.293 50.4536 24.6731 48.2951C22.2493 46.3056 19.8515 44.2836 17.4407 42.2746C17.2839 42.1315 17.1206 41.995 16.9638 41.852C16.1079 41.0848 15.8662 40.1031 15.9119 39.0043C15.8531 38.9913 15.7878 38.9848 15.729 38.9718C13.3901 42.8272 11.9266 46.9492 11.4889 51.4613C11.1034 55.4273 11.5019 59.2892 12.7302 63.0667C14.4615 68.3915 17.4799 72.8646 21.805 76.4469C25.5225 79.5222 29.7495 81.5507 34.4927 82.5519C38.1318 83.3191 41.8035 83.3646 45.4165 82.7145C50.4079 81.8172 54.9421 79.7757 58.8817 76.5054C61.5277 74.3079 63.749 71.7463 65.4738 68.7946C67.3815 65.5308 68.4661 62.0004 69.041 58.249C69.727 53.7824 69.1782 49.4718 67.9173 45.2328C67.1398 42.6127 65.8658 40.2006 64.2978 37.925C61.3382 33.634 57.4901 30.4092 52.8057 28.1856C49.6893 26.7033 46.403 25.8451 42.9077 25.5915C39.3078 25.3314 35.7929 25.5525 32.3302 26.5212C27.5282 27.8606 23.3861 30.3507 19.8515 33.8225C18.7147 34.9343 17.7347 36.2021 16.7939 37.2749C17.8785 37.3464 19.0349 37.1578 19.943 37.5414C21.8638 38.3541 23.6605 39.4659 25.5094 40.4606C25.6401 40.5322 25.7707 40.5972 25.9014 40.6687C26.6593 41.0588 27.4171 41.4489 28.175 41.8325C28.3645 42.2811 28.6258 42.5867 29.1746 42.3526C29.4229 42.4956 29.6711 42.6322 29.9194 42.7687Z" fill="#132E61"/>
<path d="M39.6737 47.0143C40.1833 47.0663 40.6994 47.1118 41.209 47.1638C40.6472 47.6384 40.1376 47.6059 39.6737 47.0143Z" fill="#132E61"/>
<path d="M28.1815 41.839C28.5147 42.0145 28.8479 42.1901 29.1811 42.3591C28.6323 42.5932 28.371 42.2876 28.1815 41.839Z" fill="#132E61"/>
<path d="M33.7284 57.0917C33.6565 56.9031 33.5912 56.7146 33.5193 56.5195C33.5912 56.7146 33.663 56.9031 33.7284 57.0917Z" fill="#132E61"/>
<path d="M35.4662 45.6425C35.6687 45.7725 35.8713 45.896 36.0738 46.0261C35.8647 45.9025 35.6622 45.7725 35.4662 45.6425Z" fill="#132E61"/>
<path d="M37.5569 46.7802C37.779 46.9102 38.0077 47.0337 38.2298 47.1637C38.0077 47.0337 37.7856 46.9102 37.5569 46.7802Z" fill="#132E61"/>
<path d="M25.516 40.4672C25.6467 40.5387 25.7773 40.6037 25.908 40.6752C25.7773 40.6037 25.6467 40.5322 25.516 40.4672Z" fill="#132E61"/>
<path d="M17.4473 42.2745C17.2905 42.1315 17.1271 41.995 16.9703 41.8519C17.1271 41.995 17.2905 42.138 17.4473 42.2745Z" fill="#132E61"/>
<path d="M15.9185 39.0108C15.8597 38.9978 15.7944 38.9848 15.7356 38.9783C15.7944 38.9913 15.8597 38.9978 15.9185 39.0108Z" fill="#132E61"/>
<path d="M36.786 60.6741C36.7272 60.6221 36.6749 60.57 36.6161 60.5245C36.6749 60.5765 36.7337 60.6286 36.786 60.6741Z" fill="#132E61"/>
</g>
<defs>
<clipPath id="clip0_54_142">
<rect width="81" height="95" fill="white"/>
</clipPath>
</defs>
</svg>
