<svg width="45" height="45" viewBox="0 0 45 45" fill="none" xmlns="http://www.w3.org/2000/svg">
<g clip-path="url(#clip0_88_7)">
<path d="M22.5264 0C10.1379 0 0.0528398 10.0763 0.0483398 22.4648C0.0460898 26.4248 1.0833 30.2908 3.0498 33.6973L0 45L11.7729 42.2183C15.0557 44.0093 18.7512 44.9494 22.5132 44.9517H22.522C34.9082 44.9517 44.9889 34.8731 44.9956 22.4868C45.0001 16.4816 42.6649 10.8354 38.4214 6.5874C34.1779 2.34165 28.5384 0.00225 22.5264 0ZM22.522 4.5C27.328 4.50225 31.8445 6.37604 35.2397 9.76904C38.635 13.1665 40.5001 17.6809 40.4956 22.4824C40.4911 32.3914 32.4311 40.4517 22.5176 40.4517C19.5183 40.4494 16.5474 39.6963 13.9307 38.2676L12.4146 37.4414L10.7402 37.8369L6.31055 38.8828L7.3916 34.8662L7.87939 33.0645L6.94775 31.4473C5.37725 28.7293 4.54609 25.6216 4.54834 22.4648C4.55284 12.5603 12.6152 4.5 22.522 4.5ZM14.5723 12.0938C14.1965 12.0938 13.589 12.2344 13.0737 12.7969C12.5585 13.3571 11.105 14.7141 11.105 17.4771C11.105 20.2401 13.1177 22.9109 13.3989 23.2866C13.6779 23.6601 17.2839 29.5093 22.9922 31.7593C27.7352 33.629 28.6985 33.26 29.729 33.1655C30.7595 33.0733 33.0535 31.8098 33.5215 30.498C33.9895 29.1863 33.9906 28.0579 33.8511 27.8262C33.7116 27.5922 33.3369 27.4526 32.7744 27.1714C32.2142 26.8901 29.4532 25.5344 28.938 25.3477C28.4227 25.1609 28.0459 25.0664 27.6724 25.6289C27.2989 26.1914 26.2255 27.4527 25.897 27.8262C25.5685 28.2019 25.2422 28.2524 24.6797 27.9712C24.1172 27.6877 22.3086 27.0932 20.1621 25.1807C18.4926 23.6934 17.3661 21.8584 17.0376 21.2959C16.7113 20.7356 17.0068 20.4279 17.2881 20.1489C17.5401 19.8969 17.8462 19.4931 18.1274 19.1646C18.4064 18.8361 18.5032 18.602 18.6899 18.2285C18.8767 17.855 18.7811 17.5254 18.6416 17.2441C18.5021 16.9629 17.4097 14.1896 16.9102 13.0781C16.4894 12.1444 16.045 12.1227 15.6445 12.1069C15.3183 12.0934 14.9458 12.0938 14.5723 12.0938Z" fill="white"/>
</g>
<defs>
<clipPath id="clip0_88_7">
<rect width="45" height="45" fill="white"/>
</clipPath>
</defs>
</svg>
